<?xml version="1.0" encoding="UTF-8"?>
<svg width="83px" height="21px" viewBox="0 0 83 21" version="1.1" xmlns="http://www.w3.org/2000/svg" xmlns:xlink="http://www.w3.org/1999/xlink">
    <title>Download</title>
    <defs>
        <rect id="path-1" x="0" y="0" width="83" height="21" rx="3"></rect>
        <linearGradient x1="0%" y1="0%" x2="0%" y2="100%" id="linearGradient-3">
            <stop stop-color="#BBBBBB" stop-opacity="0.1" offset="0%"></stop>
            <stop stop-color="#000000" stop-opacity="0.1" offset="100%"></stop>
        </linearGradient>
    </defs>
    <g id="页面-1" stroke="none" stroke-width="1" fill="none" fill-rule="evenodd">
        <g id="Download">
            <g id="编组-Clipped">
                <mask id="mask-2" fill="white">
                    <use xlink:href="#path-1"></use>
                </mask>
                <g id="底"></g>
                <g id="编组" mask="url(#mask-2)" fill-rule="nonzero">
                    <polygon id="灰色" fill="#555555" points="0 0 31 0 31 21 0 21"></polygon>
                    <polygon id="蓝色" fill="#1DA1F3" points="31 0 83 0 83 21 31 21"></polygon>
                    <polygon id="全" fill="url(#linearGradient-3)" points="2 0 81 0 81 21 2 21"></polygon>
                </g>
            </g>
            <g id="编组" transform="translate(36.000000, 2.000000)" fill="#FFFFFF" fill-rule="nonzero" font-family="Verdana" font-size="12" font-weight="normal">
                <text id="Twitter">
                    <tspan x="0.5" y="12.9">Twitter</tspan>
                </text>
            </g>
            <path d="M25.9965893,4.01640167 C25.4019815,4.88462183 24.6823128,5.62419579 23.8375833,6.23512355 C23.8466786,6.35866923 23.8512263,6.54455448 23.8512263,6.79277931 C23.8512263,7.94436113 23.682394,9.09310934 23.3447296,10.2390239 C23.0070651,11.3849385 22.4943154,12.4849485 21.8064804,13.5390539 C21.1186455,14.5931593 20.2994965,15.5254192 19.3490336,16.3358336 C18.3985707,17.146248 17.2525581,17.7928793 15.9109956,18.2757276 C14.5694332,18.7585759 13.135212,19 11.608332,19 C9.20147798,19 6.99870065,18.3579025 5,17.0737074 C5.31037843,17.1088442 5.65656976,17.1264127 6.03857398,17.1264127 C8.03727465,17.1264127 9.81825565,16.5154849 11.381517,15.2936294 C10.4492448,15.2754942 9.61417898,14.9898657 8.87631963,14.4367437 C8.13846029,13.8836217 7.63196362,13.1774844 7.35682961,12.3183319 C7.65015428,12.3625363 7.92130907,12.3846385 8.17029397,12.3846385 C8.55229819,12.3846385 8.92975474,12.3359003 9.30266363,12.2384239 C8.30786096,12.0344035 7.48416435,11.5407874 6.83157381,10.7575758 C6.17898326,9.9743641 5.85268798,9.06477314 5.85268798,8.02880288 L5.85268798,7.9760976 C6.45639109,8.31273127 7.10500242,8.49408274 7.798522,8.520152 C7.21187266,8.13024634 6.74573655,7.62132878 6.40011368,6.99339932 C6.0544908,6.36546986 5.88111091,5.68370169 5.87997401,4.9480948 C5.87997401,4.16828348 6.07552379,3.44684467 6.46662335,2.78377837 C7.54101023,4.10311031 8.84903362,5.15891589 10.3906935,5.95119511 C11.9323534,6.74347434 13.5820205,7.18381837 15.3396946,7.27222721 C15.2692058,6.93559354 15.2339613,6.60802746 15.2339613,6.28952895 C15.2339613,5.10281029 15.6534838,4.09120913 16.4925288,3.25472548 C17.3315738,2.41824183 18.3462725,2 19.536625,2 C20.7804126,2 21.8286503,2.4516785 22.6813383,3.3550355 C23.6499919,3.16915024 24.5606627,2.82401572 25.4133507,2.31963196 C25.0847816,3.33746708 24.4543609,4.12577924 23.5220887,4.68456844 C24.3486276,4.5961596 25.174598,4.37457077 26,4.01980197 L25.9965893,4.01640167 Z" id="路径" fill="#1DA1F3" fill-rule="nonzero"></path>
        </g>
    </g>
</svg>