<?xml version="1.0" encoding="UTF-8"?>
<svg width="87px" height="23px" viewBox="0 0 87 23" version="1.1" xmlns="http://www.w3.org/2000/svg" xmlns:xlink="http://www.w3.org/1999/xlink">
    <title>Twitter</title>
    <defs>
        <rect id="path-1" x="0" y="0" width="85" height="21" rx="3"></rect>
    </defs>
    <g id="页面-1" stroke="none" stroke-width="1" fill="none" fill-rule="evenodd">
        <g id="Twitter" transform="translate(1.000000, 1.000000)">
            <g id="背景">
                <mask id="mask-2" fill="white">
                    <use xlink:href="#path-1"></use>
                </mask>
                <use id="矩形" stroke="#1DA1F3" fill="#FFFFFF" xlink:href="#path-1"></use>
                <g id="编组" mask="url(#mask-2)" fill="#1DA1F3" fill-rule="nonzero">
                    <g transform="translate(39.000000, 0.000000)" id="路径">
                        <polygon points="0 0 46 0 46 21 0 21"></polygon>
                    </g>
                </g>
            </g>
            <g id="文字" transform="translate(42.000000, 1.000000)" fill="#FFFFFF" fill-rule="nonzero" font-family="PingFangSC-Regular, PingFang SC" font-size="12" font-weight="normal">
                <text id="Twitter">
                    <tspan x="0.5" y="13.9">Twitter</tspan>
                </text>
            </g>
            <g id="logo" transform="translate(9.000000, 2.000000)" fill="#1DA1F3" fill-rule="nonzero">
                <path d="M17.6441667,2.7528041 C18.5066958,2.20981393 19.1475187,1.3668758 19.4483333,0.379604108 C18.6450755,0.878207916 17.7626717,1.2300019 16.8408333,1.4191541 C16.074449,0.557586899 14.9872008,0.0659013599 13.8466667,0.0651041016 C11.5816667,0.0651041016 9.745,1.98610411 9.745,4.3567541 C9.745,4.6933541 9.78,5.0197541 9.85,5.3342541 C6.44,5.1549041 3.41666666,3.44725411 1.39166666,0.848804108 C1.02652426,1.5073191 0.835283644,2.25126232 0.83666666,3.0078041 C0.83666666,4.49615409 1.56166666,5.8102541 2.66166666,6.5803541 C2.00881859,6.55817555 1.3710506,6.37439541 0.80333334,6.0448541 L0.80333334,6.09755411 C0.80333334,8.1775041 2.2175,9.91235411 4.095,10.3050541 C3.74368603,10.4066474 3.38015816,10.457575 3.015,10.4563541 C2.75083334,10.4563541 2.4925,10.4308541 2.2425,10.3798541 C2.76416666,12.0849541 4.27916666,13.3259541 6.075,13.3591041 C4.36964696,14.7665796 2.17762222,15.4085091 0,15.1381541 C1.86658162,16.3945542 4.05362543,17.064558 6.29,17.0651041 C13.8383333,17.0651041 17.965,10.5269041 17.965,4.8548541 C17.965,4.6678541 17.9608333,4.4817041 17.9541667,4.2989541 C18.7558333,3.6937541 19.4516667,2.9389541 20,2.07790411 C19.2532219,2.42454866 18.4586847,2.65216798 17.6441667,2.7528041 Z" id="路径"></path>
            </g>
        </g>
    </g>
</svg>